<?xml version="1.0" encoding="UTF-8" standalone="no"?>
<!-- Uploaded to: SVG Repo, www.svgrepo.com, Generator: SVG Repo Mixer Tools -->

<svg
   fill="#000000"
   width="24.721149mm"
   height="30mm"
   viewBox="0 0 2.803028 3.4015748"
   role="img"
   version="1.1"
   id="svg4"
   sodipodi:docname="LINUX-TUX.svg"
   inkscape:version="1.2.2 (b0a8486541, 2022-12-01)"
   xmlns:inkscape="http://www.inkscape.org/namespaces/inkscape"
   xmlns:sodipodi="http://sodipodi.sourceforge.net/DTD/sodipodi-0.dtd"
   xmlns="http://www.w3.org/2000/svg"
   xmlns:svg="http://www.w3.org/2000/svg">
  <defs
     id="defs8" />
  <sodipodi:namedview
     id="namedview6"
     pagecolor="#ffffff"
     bordercolor="#000000"
     borderopacity="0.25"
     inkscape:pageshadow="2"
     inkscape:pageopacity="0.0"
     inkscape:pagecheckerboard="0"
     showgrid="false"
     inkscape:zoom="256"
     inkscape:cx="57.591797"
     inkscape:cy="34.615234"
     inkscape:window-width="1737"
     inkscape:window-height="1133"
     inkscape:window-x="0"
     inkscape:window-y="0"
     inkscape:window-maximized="1"
     inkscape:current-layer="layer3"
     inkscape:showpageshadow="2"
     inkscape:deskcolor="#d1d1d1"
     inkscape:document-units="mm" />
  <g
     inkscape:groupmode="layer"
     id="layer2"
     inkscape:label="Layer 4"
     transform="translate(-1.7391746,-0.34500002)" />
  <g
     inkscape:groupmode="layer"
     id="layer1"
     inkscape:label="Layer 3"
     transform="translate(-1.7391746,-0.34500002)" />
  <g
     inkscape:groupmode="layer"
     id="layer3"
     inkscape:label="Layer 2"
     transform="matrix(3.7795121,0,0,3.7795121,-6.573231,-1.3039317)"
     style="display:inline">
    <path
       style="display:inline;fill:none;stroke:#000000;stroke-width:0.00112361;stroke-miterlimit:4;stroke-dasharray:none;stroke-opacity:1"
       d="m 2.12887,0.34556181 c -0.00581,0 -0.011798,2.9962e-4 -0.017978,7.8652e-4 -0.03957,0.003118 -0.066623,0.0159295 -0.084983,0.0342654 -0.01836,0.0183359 -0.028026,0.0421962 -0.032823,0.0674119 -0.0048,0.0252157 -0.00472,0.0517867 -0.0036,0.075544 0.00112,0.0237573 0.00329,0.0447009 0.00268,0.0586618 -7.125e-4,0.0102248 -0.00177,0.019909 -0.0034,0.0293081 -0.00163,0.009399 -0.00382,0.0185132 -0.0068,0.0275981 -0.00298,0.009085 -0.00675,0.0181404 -0.011534,0.0274225 -0.00478,0.009282 -0.010572,0.0187906 -0.017594,0.0287814 -0.00829,0.009841 -0.017409,0.0211988 -0.026776,0.0337364 -0.00937,0.0125376 -0.018978,0.026255 -0.028244,0.0408151 -0.00927,0.0145601 -0.018184,0.0299629 -0.026165,0.0458713 -0.00798,0.0159084 -0.015025,0.0323225 -0.02054,0.0489051 -0.010412,0.0311614 -0.015356,0.0630719 -0.010749,0.0932221 -0.00171,0.001383 -0.00311,0.003106 -0.00412,0.00506 -0.00974,0.010038 -0.016854,0.022472 -0.024832,0.031424 -0.00745,0.00745 -0.018165,0.01 -0.029851,0.014981 -0.011723,0.00509 -0.024644,0.010075 -0.03236,0.025469 -0.00337,0.00708 -0.00509,0.014757 -0.00494,0.022547 0,0.00745 0.00101,0.014981 0.00206,0.020075 0.00217,0.014944 0.00434,0.027266 0.0015,0.03633 -0.00933,0.025468 -0.010487,0.042884 -0.00397,0.055581 0.00652,0.012509 0.020038,0.017603 0.035206,0.02251 0.030338,0.00749 0.071537,0.00506 0.1038965,0.022472 0.034682,0.017453 0.069888,0.025094 0.097979,0.017603 0.019701,-0.00435 0.03633,-0.017379 0.045244,-0.035431 0.021985,-1.124e-4 0.046068,-0.010075 0.084645,-0.012509 0.02618,-0.00217 0.058952,0.01 0.096518,0.00749 9.363e-4,0.00502 0.00236,0.00742 0.00427,0.012472 l 1.124e-4,1.123e-4 c 0.014644,0.029139 0.041686,0.042398 0.070563,0.040113 0.028877,-0.00225 0.059626,-0.020075 0.084533,-0.048914 0.023633,-0.028652 0.063035,-0.0406 0.089065,-0.056293 0.013034,-0.00745 0.023558,-0.017566 0.024307,-0.031948 8.615e-4,-0.014981 -0.00749,-0.030375 -0.026742,-0.051536 v -0.00363 L 2.453331,1.0517503 C 2.446961,1.0442593 2.443971,1.0317126 2.440672,1.0170682 2.437492,1.0020493 2.433852,0.9876296 2.422245,0.9778917 h -1.123e-4 c -0.00221,-0.00202 -0.00461,-0.00251 -0.00704,-0.00506 -0.0021,-0.001464 -0.00457,-0.002297 -0.00712,-0.0024 0.016142,-0.0478658 0.00989,-0.0955068 -0.00648,-0.13835373 -0.00499,-0.0132007 -0.010915,-0.0259757 -0.017411,-0.0382075 -0.0065,-0.0122317 -0.013561,-0.0239201 -0.020834,-0.0349474 -0.00727,-0.0110273 -0.014753,-0.0213936 -0.022077,-0.030981 -0.00732,-0.009587 -0.014492,-0.0183961 -0.02114,-0.0263082 -0.00745,-0.00941 -0.014869,-0.0186964 -0.021791,-0.0281581 -0.00692,-0.009462 -0.01335,-0.019099 -0.018827,-0.0292115 -0.00548,-0.0101125 -0.012699,-0.0171682 -0.015819,-0.0285307 -0.00312,-0.0113625 -0.0053,-0.0236583 -0.00515,-0.0368701 2.435e-4,-0.0201501 0.00409,-0.0479551 0.00275,-0.0732714 -0.00134,-0.0253163 -0.00469,-0.0515175 -0.012492,-0.0752069 -0.0078,-0.0236894 -0.020063,-0.0448671 -0.03922,-0.0601365 -0.019156,-0.0152694 -0.04521,-0.0246304 -0.080604,-0.0246866 z"
       id="path2"
       sodipodi:nodetypes="ccssscssscssscccccccccccccccccccccccccccccccssscssscssscc" />
    <path
       style="fill:none;stroke:#000000;stroke-width:0.00112361;stroke-miterlimit:4;stroke-dasharray:none;stroke-opacity:1"
       d="m 2.193927,0.61942288 c 0.0067,0.0265359 0.017903,0.0590738 0.029949,0.08965 0.012046,0.0305762 0.02494,0.0591908 0.035033,0.0778802 0.00536,0.0100001 0.013362,0.025534 0.021185,0.0449584 0.00782,0.0194244 0.015464,0.0427393 0.020089,0.0683014 0.00292,-9.365e-5 0.00601,7.49e-5 0.00923,4.8259e-4 0.00322,4.08e-4 0.00656,0.001055 0.00999,0.001917 C 2.3315,0.87131847 2.326393,0.83885477 2.315713,0.81187837 2.305034,0.78490197 2.288788,0.76341327 2.27862,0.75406827 2.2745,0.75032327 2.27233,0.74718627 2.2717,0.74498527 c -6.3e-4,-0.0022 2.7e-4,-0.003464 0.00231,-0.003464 0.011049,0.0100001 0.02383,0.0247194 0.035164,0.0424864 0.011334,0.0177671 0.021222,0.038582 0.026485,0.0607733 0.00243,0.0100189 0.00393,0.020356 0.00417,0.0308384 2.4e-4,0.0104823 -7.8e-4,0.0211098 -0.00338,0.0317092 0.00126,5.25e-4 0.00252,0.001087 0.0038,0.001551 0.00128,4.6375e-4 0.00257,8.2875e-4 0.00388,9.5875e-4 0.019326,0.01 0.032559,0.0187829 0.040099,0.0278699 0.00754,0.009087 0.0094,0.0184786 0.00597,0.0296961 v -8.05e-4 -8.05e-4 c -0.00113,-5.615e-5 -0.00225,-5.615e-5 -0.00337,-4.211e-5 -0.00112,1.404e-5 -0.00225,4.211e-5 -0.00337,4.211e-5 h -2.997e-4 -2.996e-4 c 0.00283,-0.008745 0.00113,-0.0164706 -0.00542,-0.0238766 -0.00655,-0.007406 -0.017933,-0.0144944 -0.034467,-0.0219664 -0.017135,-0.00749 -0.032547,-0.010636 -0.044256,-0.00816 -0.011709,0.002477 -0.019717,0.0105759 -0.022037,0.0255759 -1.498e-4,8.05e-4 -2.715e-4,0.001422 -3.792e-4,0.002163 -1.077e-4,7.4e-4 -2.014e-4,0.001602 -2.95e-4,0.002897 -0.00128,4.3075e-4 -0.00258,9.2825e-4 -0.00389,0.001369 -0.00131,4.4107e-4 -0.00263,8.2569e-4 -0.00394,0.001031 -0.00805,0.005016 -0.01425,0.0112795 -0.01905,0.0187135 -0.0048,0.007434 -0.0082,0.0160385 -0.010651,0.0257395 -0.00244,0.009982 -0.00403,0.0208053 -0.00517,0.0324723 -0.00115,0.011667 -0.00185,0.024176 -0.00251,0.037529 v 5.62e-5 5.62e-5 c -3.7e-4,0.00626 -0.00197,0.014101 -0.00416,0.022781 -0.0022,0.00868 -0.005,0.018191 -0.00778,0.027781 -0.02809,0.020075 -0.061611,0.034472 -0.096387,0.038222 -0.034776,0.00375 -0.070806,-0.00316 -0.1039153,-0.025712 -0.00208,-0.00363 -0.00438,-0.00712 -0.0069,-0.010458 -0.00251,-0.00333 -0.00524,-0.00651 -0.00816,-0.0095 -0.0014,-0.00232 -0.00296,-0.00454 -0.00468,-0.00662 -0.00172,-0.00208 -0.0036,-0.00404 -0.00562,-0.00585 0.00341,0 0.00657,-2.8e-4 0.00948,-7.337e-4 0.00291,-4.5e-4 0.00556,-0.00108 0.00793,-0.00178 0.00269,-0.00125 0.00509,-0.00299 0.00709,-0.00512 0.002,-0.00212 0.00359,-0.00463 0.00467,-0.00739 0.00202,-0.005 0.00202,-0.011524 -9.65e-5,-0.018984 -0.00212,-0.00746 -0.00637,-0.015845 -0.012825,-0.024575 -0.00646,-0.00875 -0.015178,-0.018064 -0.026293,-0.027654 -0.011114,-0.009593 -0.024625,-0.0194621 -0.040674,-0.0293121 -0.011798,-0.00749 -0.021031,-0.0156369 -0.028081,-0.0243729 -0.00705,-0.008736 -0.011921,-0.0180621 -0.014991,-0.0279121 -0.00309,-0.01 -0.00443,-0.0201592 -0.0044,-0.0304403 3e-5,-0.010281 0.00144,-0.0206839 0.00384,-0.031171 0.00459,-0.0200377 0.012768,-0.0397945 0.021668,-0.057599 0.0089,-0.0178045 0.018538,-0.0336568 0.026048,-0.0458854 5.025e-4,-3.0425e-4 9.006e-4,-4.5344e-4 0.00118,-4.202e-4 2.796e-4,3.323e-5 4.407e-4,2.4889e-4 4.692e-4,6.7432e-4 2.84e-5,4.25e-4 -7.58e-5,0.001061 -3.269e-4,0.001933 -2.51e-4,8.72e-4 -6.488e-4,0.001982 -0.00121,0.003356 -0.00224,0.005498 -0.00706,0.0152247 -0.015396,0.0309367 -0.00742,0.0140638 -0.018095,0.0374435 -0.022145,0.0636619 -0.00101,0.006554 -0.00161,0.0132859 -0.00164,0.0200939 -3e-5,0.006808 5e-4,0.0136914 0.00176,0.0205504 0.00126,0.006859 0.00324,0.0136924 0.0061,0.0203994 0.00286,0.006707 0.00659,0.0132879 0.011359,0.0196409 7.2e-4,-0.0185415 0.00313,-0.036939 0.00719,-0.0549669 0.00406,-0.0180279 0.00975,-0.0356864 0.017044,-0.0527499 0.010562,-0.0239329 0.026882,-0.0567423 0.040998,-0.091827 0.014115,-0.0350847 0.026027,-0.0724447 0.027767,-0.10547883 9e-4,6.74e-4 0.00293,0.001938 0.00508,0.003347 0.00214,0.001409 0.0044,0.002964 0.00575,0.004219 0.00408,0.00249 0.00764,0.005609 0.011159,0.008722 0.00352,0.003113 0.00701,0.006222 0.010939,0.008694 0.00394,0.003764 0.0084,0.006901 0.013752,0.009097 0.00535,0.002196 0.011587,0.00345 0.019057,0.00345 7.3e-4,5.618e-5 0.00143,1.1236e-4 0.00212,1.545e-4 6.8e-4,4.213e-5 0.00135,7.022e-5 0.002,7.022e-5 0.00772,0 0.014547,-0.001255 0.020707,-0.003137 0.00616,-0.001882 0.011634,-0.004391 0.016634,-0.006901 0.00543,-0.00251 0.010301,-0.005637 0.014841,-0.008446 0.00455,-0.002809 0.00876,-0.0053 0.012875,-0.006536 h 9.36e-5 9.36e-5 c 0.00875,-0.002528 0.016565,-0.006292 0.023175,-0.0108193 0.00598,-0.004805 0.011687,-0.0109852 0.015945,-0.0154036 z"
       id="path869"
       sodipodi:nodetypes="cscscscscscscscscscccssccscscscscscscccscscscscscscscscscscscsssscsssscscscscscscssscsccccc" />
    <path
       style="fill:none;stroke:#000000;stroke-width:0.00112361;stroke-miterlimit:4;stroke-dasharray:none;stroke-opacity:1"
       d="m 2.0377453,0.47530124 h 0.00135 c 0.00532,0 0.010112,0.001798 0.014944,0.005056 0.00547,0.004832 0.00989,0.0107866 0.012884,0.0174159 0.00337,0.007453 0.00524,0.0149815 0.00573,0.0249816 v 1.4982e-4 c 2.622e-4,0.005019 2.247e-4,0.007491 -7.49e-5,0.009963 v 0.002996 c -0.00112,2.6218e-4 -0.0021,6.7417e-4 -0.00311,8.9889e-4 -0.00569,0.00206 -0.010262,0.005056 -0.014719,0.007491 4.495e-4,-0.003371 4.869e-4,-0.006742 1.124e-4,-0.0100001 v -5.6181e-4 c -4.494e-4,-0.004981 -0.0015,-0.007491 -0.00307,-0.0124721 a 0.02295909,0.02295909 0 0 0 -0.00622,-0.0100001 0.0092885,0.0092885 0 0 0 -0.00685,-0.002397 h -7.865e-4 c -0.00266,2.2472e-4 -0.00487,0.001498 -0.00697,0.004944 a 0.02067441,0.02067441 0 0 0 -0.00449,0.0101125 0.03535624,0.03535624 0 0 0 -8.614e-4,0.0123597 v 5.618e-4 c 4.494e-4,0.005056 0.00139,0.007491 0.003,0.0125095 0.00172,0.005019 0.00367,0.007491 0.00622,0.0100376 3.745e-4,3.3708e-4 7.491e-4,6.7417e-4 0.00127,8.9889e-4 -0.00262,0.002135 -0.00438,0.002622 -0.00659,0.005094 a 0.01138591,0.01138591 0 0 1 -0.00491,0.002547 0.09812856,0.09812856 0 0 1 -0.0103,-0.0150564 0.06636786,0.06636786 0 0 1 -0.00581,-0.0249816 0.06588097,0.06588097 0 0 1 0.003,-0.025019 0.05355872,0.05355872 0 0 1 0.010599,-0.0200377 c 0.00479,-0.004981 0.00974,-0.007491 0.015656,-0.007491 z"
       id="path865" />
    <path
       style="fill:none;stroke:#000000;stroke-width:0.00112361;stroke-miterlimit:4;stroke-dasharray:none;stroke-opacity:1"
       d="m 2.148683,0.47309148 h 4.869e-4 c 0.00798,0 0.014832,0.002322 0.021873,0.007416 0.00712,0.005056 0.01236,0.0124346 0.016405,0.0199628 0.00393,0.009701 0.00592,0.0171912 0.00622,0.0271165 0,-7.4908e-4 2.247e-4,-0.001498 2.247e-4,-0.002247 v 0.003933 A 0.00322101,0.00322101 0 0 1 2.1937428,0.52848625 L 2.193593,0.52758737 a 0.06767874,0.06767874 0 0 1 -0.00562,0.0264423 0.03569333,0.03569333 0 0 1 -0.00798,0.012547 0.02659209,0.02659209 0 0 0 -0.0033,-0.001573 c -0.0039,-0.001685 -0.00742,-0.002397 -0.010637,-0.004981 a 0.04913919,0.04913919 0 0 0 -0.00824,-0.002472 c 0.00187,-0.002247 0.00547,-0.004981 0.00685,-0.007416 0.00198,-0.004794 0.00307,-0.009888 0.0033,-0.0150564 v -7.4908e-4 a 0.04531891,0.04531891 0 0 0 -0.00228,-0.0149815 c -0.00169,-0.005019 -0.00378,-0.007491 -0.00685,-0.0124721 -0.00315,-0.002472 -0.00625,-0.004944 -0.01,-0.004944 h -5.993e-4 c -0.00348,0 -0.00659,0.001124 -0.00981,0.004944 a 0.02996292,0.02996292 0 0 0 -0.00768,0.0125095 0.0441953,0.0441953 0 0 0 -0.00337,0.0149815 v 7.1162e-4 c 7.49e-5,0.003333 2.996e-4,0.006704 7.49e-4,0.0100001 -0.00723,-0.002509 -0.016405,-0.005056 -0.022734,-0.007566 a 0.06123671,0.06123671 0 0 1 -6.742e-4,-0.007491 v -7.4907e-4 a 0.06636786,0.06636786 0 0 1 0.00562,-0.0287644 0.04044994,0.04044994 0 0 1 0.016105,-0.0199628 0.03689184,0.03689184 0 0 1 0.022248,-0.007491 z"
       id="path863" />
  </g>
  <g
     inkscape:groupmode="layer"
     id="layer4"
     inkscape:label="Layer 1"
     transform="matrix(3.7795121,0,0,3.7795121,-6.573231,-1.3039317)"
     style="display:inline">
    <path
       id="path873"
       style="fill:none;stroke:#e69629;stroke-width:0.00112361;stroke-miterlimit:4;stroke-dasharray:none;stroke-opacity:1"
       d="m 1.8707392,0.956768 c -0.017823,0.001677 -0.027698,0.0149596 -0.037635,0.0284538 -0.00994,0.0134942 -0.019937,0.0272001 -0.038009,0.0297237 -0.012296,0.00245 -0.02351,0.00922 -0.030634,0.018637 -0.00712,0.00942 -0.010156,0.021481 -0.00609,0.034532 0.00391,0.013013 0.00423,0.025892 0.00272,0.038659 -0.00151,0.012768 -0.00484,0.025424 -0.00823,0.037993 -0.0012,0.019349 0.01059,0.027475 0.025903,0.031295 0.015313,0.00382 0.034148,0.00334 0.047038,0.00546 0.022255,1.428e-4 0.042079,0.00849 0.061807,0.017194 0.019728,0.0087 0.039361,0.017754 0.061235,0.019303 0.019955,0.00512 0.04139,-0.00211 0.055721,-0.015745 0.014331,-0.013639 0.021559,-0.033687 0.013101,-0.054199 -0.00853,-0.019915 -0.021792,-0.036747 -0.035233,-0.053465 -0.013441,-0.016718 -0.027059,-0.033324 -0.036296,-0.052787 L 1.9307261,1.0136414 1.9153112,0.9854552 c -0.00537,-0.007118 -0.011716,-0.0143484 -0.019119,-0.0197699 -0.0074,-0.005422 -0.015861,-0.009034 -0.025453,-0.008917 z"
       sodipodi:nodetypes="cscscscscscscscccsc" />
    <path
       id="path871"
       style="fill:none;stroke:#e69629;stroke-width:0.00112361;stroke-miterlimit:4;stroke-dasharray:none;stroke-opacity:1"
       d="m 2.2757631,0.9549334 c -0.020227,0.0135769 -0.026825,0.0342019 -0.029491,0.0565416 -0.00267,0.02234 -0.0014,0.046394 -0.0059,0.06683 -0.00503,0.022187 -0.015856,0.048602 -0.0197,0.07386 -0.00384,0.025258 -7.041e-4,0.049358 0.02221,0.066914 0.022642,0.013856 0.04611,0.011761 0.06764,0.00201 0.021531,-0.00975 0.041124,-0.027166 0.056017,-0.043945 0.012838,-0.016256 0.030633,-0.025066 0.048646,-0.033466 0.018013,-0.0084 0.036244,-0.016389 0.049956,-0.031002 0.00731,-0.014539 0.00106,-0.026414 -0.00776,-0.037931 -0.00882,-0.011516 -0.020212,-0.022674 -0.023193,-0.035777 -0.00188,-0.012027 -0.0041,-0.025868 -0.0095,-0.037386 -0.0054,-0.0115182 -0.01398,-0.020713 -0.028574,-0.0234459 -0.012956,-0.002426 -0.021903,0.003232 -0.030512,0.009858 -0.00861,0.006626 -0.016881,0.0142194 -0.028488,0.0156641 -0.018607,0.00232 -0.033875,-0.00157 -0.044525,-0.0101781 -0.01065,-0.008611 -0.021459,-0.0370773 -0.016816,-0.0385435 l -10e-7,3e-7 z"
       sodipodi:nodetypes="cscscscscscsssssscc" />
    <path
       id="path867"
       style="fill:none;stroke:#e69629;stroke-width:0.00112361;stroke-miterlimit:4;stroke-dasharray:none;stroke-opacity:1"
       d="m 2.0890793,0.5391979 c -0.031693,-0.002386 -0.048176,0.0300864 -0.073617,0.0425459 -0.019107,0.0154351 7.656e-4,0.0406575 0.017313,0.0484764 0.02086,0.0163798 0.047154,0.03837 0.075185,0.0246696 0.026232,-0.0101858 0.049836,-0.0266391 0.07368,-0.0409401 0.00844,-0.0103539 0.019564,-0.0344335 -4.718e-4,-0.0390672 -0.027423,-0.0112753 -0.052811,-0.028669 -0.081904,-0.0350452 l -0.00508,-4.9967e-4 z"
       sodipodi:nodetypes="cscscccc" />
    <path
       style="fill:none;stroke:#000000;stroke-width:0.00112361;stroke-miterlimit:4;stroke-dasharray:none;stroke-opacity:1"
       d="m 2.0777083,0.55762436 c -7.49e-4,0.002172 -0.00423,0.001835 -0.00622,0.002472 -0.00176,9.3634e-4 -0.00322,0.002547 -0.00524,0.002547 -0.00187,0 -0.00487,-7.4907e-4 -0.00509,-0.002547 -3.745e-4,-0.002472 0.0033,-0.004981 0.00562,-0.004981 0.003,-0.001161 0.00689,-0.00176 0.0097,-1.8727e-4 7.116e-4,3.3708e-4 0.00135,0.001124 0.00112,0.001873 v 7.4907e-4 h 1.123e-4 z"
       id="path879" />
    <path
       style="fill:none;stroke:#000000;stroke-width:0.00112361;stroke-miterlimit:4;stroke-dasharray:none;stroke-opacity:1"
       d="m 2.0983453,0.55762436 v -8.2398e-4 c -2.247e-4,-7.4907e-4 4.869e-4,-0.001573 0.00109,-0.001873 0.00277,-0.001611 0.00674,-0.001011 0.00974,1.4981e-4 0.00236,0 0.00599,0.002509 0.00562,0.005056 -2.247e-4,0.001835 -0.00318,0.002472 -0.00506,0.002472 -0.00206,0 -0.00345,-0.001611 -0.00528,-0.002547 -0.00195,-6.7417e-4 -0.00547,-2.9963e-4 -0.0061,-0.002434 z"
       id="path877" />
    <path
       style="fill:none;stroke:#000000;stroke-width:0.00112361;stroke-miterlimit:4;stroke-dasharray:none;stroke-opacity:1"
       d="m 2.1388701,0.61691349 c -0.016292,0.007528 -0.035394,0.0200377 -0.055731,0.0200377 -0.0203,0 -0.03633,-0.0100001 -0.047941,-0.0174534 -0.00577,-0.005019 -0.010487,-0.0100376 -0.01397,-0.012547 -0.00614,-0.005019 -0.00539,-0.0124721 -0.00277,-0.0124721 0.00408,5.9926e-4 0.00483,0.005019 0.00745,0.007491 0.0036,0.002472 0.00805,0.007491 0.013483,0.0124721 0.010937,0.007491 0.025469,0.0174909 0.043709,0.0174909 0.018165,0 0.039439,-0.0100001 0.05236,-0.0174534 0.0073,-0.005056 0.016667,-0.0125095 0.02427,-0.0174909 0.00584,-0.005094 0.00558,-0.0100001 0.01045,-0.0100001 0.00479,5.9926e-4 0.00127,0.005019 -0.00551,0.0124346 a 0.30326219,0.30326219 0 0 1 -0.025843,0.0175283 z"
       id="path875" />
  </g>
</svg>
