<?xml version="1.0" encoding="UTF-8" standalone="no"?>
<!-- Uploaded to: SVG Repo, www.svgrepo.com, Generator: SVG Repo Mixer Tools -->

<svg
   fill="#000000"
   width="24.721251"
   height="30.000004"
   viewBox="0 0 0.74163752 0.90000011"
   role="img"
   version="1.1"
   id="svg4"
   sodipodi:docname="LINUX-TUX.svg"
   inkscape:version="1.3.2 (091e20e, 2023-11-25)"
   xmlns:inkscape="http://www.inkscape.org/namespaces/inkscape"
   xmlns:sodipodi="http://sodipodi.sourceforge.net/DTD/sodipodi-0.dtd"
   xmlns="http://www.w3.org/2000/svg"
   xmlns:svg="http://www.w3.org/2000/svg">
  <defs
     id="defs8" />
  <sodipodi:namedview
     id="namedview6"
     pagecolor="#ffffff"
     bordercolor="#000000"
     borderopacity="0.25"
     inkscape:pageshadow="2"
     inkscape:pageopacity="0.0"
     inkscape:pagecheckerboard="0"
     showgrid="false"
     inkscape:zoom="17.771198"
     inkscape:cx="9.7911238"
     inkscape:cy="28.304226"
     inkscape:window-width="1433"
     inkscape:window-height="938"
     inkscape:window-x="70"
     inkscape:window-y="27"
     inkscape:window-maximized="1"
     inkscape:current-layer="layer3"
     inkscape:showpageshadow="2"
     inkscape:deskcolor="#d1d1d1" />
  <g
     inkscape:groupmode="layer"
     id="layer2"
     inkscape:label="Layer 4"
     transform="translate(-2.0991753,0.01499999)" />
  <g
     inkscape:groupmode="layer"
     id="layer1"
     inkscape:label="Layer 3"
     transform="translate(-2.0991753,0.01499999)" />
  <g
     inkscape:groupmode="layer"
     id="layer3"
     inkscape:label="Layer 2"
     transform="translate(-2.0991753,0.01499999)">
    <path
       style="display:inline;fill:none;stroke:#000000;stroke-width:0.00112361;stroke-miterlimit:4;stroke-dasharray:none;stroke-opacity:1"
       d="m 2.12887,0.34556181 c -0.00581,0 -0.011798,2.9962e-4 -0.017978,7.8652e-4 -0.1582792,0.0124721 -0.1162936,0.18003969 -0.1187281,0.23588308 -0.00285,0.0408994 -0.011236,0.073147 -0.039326,0.11311002 -0.033146,0.0393638 -0.079664,0.10299753 -0.1017241,0.16932794 -0.010412,0.0311614 -0.015356,0.0630719 -0.010749,0.0932221 a 0.01588035,0.01588035 0 0 0 -0.00412,0.00506 c -0.00974,0.010038 -0.016854,0.022472 -0.024832,0.031424 -0.00745,0.00745 -0.018165,0.01 -0.029851,0.014981 -0.011723,0.00509 -0.024644,0.010075 -0.03236,0.025469 -0.00337,0.00708 -0.00509,0.014757 -0.00494,0.022547 0,0.00745 0.00101,0.014981 0.00206,0.020075 0.00217,0.014944 0.00434,0.027266 0.0015,0.03633 -0.00933,0.025468 -0.010487,0.042884 -0.00397,0.055581 0.00652,0.012509 0.020038,0.017603 0.035206,0.02251 0.030338,0.00749 0.071537,0.00506 0.1038965,0.022472 0.034682,0.017453 0.069888,0.025094 0.097979,0.017603 0.019701,-0.00435 0.03633,-0.017379 0.045244,-0.035431 0.021985,-1.124e-4 0.046068,-0.010075 0.084645,-0.012509 0.02618,-0.00217 0.058952,0.01 0.096518,0.00749 9.363e-4,0.00502 0.00236,0.00742 0.00427,0.012472 l 1.124e-4,1.123e-4 c 0.014644,0.029139 0.041686,0.042398 0.070563,0.040113 0.028877,-0.00225 0.059626,-0.020075 0.084533,-0.048914 0.023633,-0.028652 0.063035,-0.0406 0.089065,-0.056293 0.013034,-0.00745 0.023558,-0.017566 0.024307,-0.031948 8.615e-4,-0.014981 -0.00749,-0.030375 -0.026742,-0.051536 v -0.00363 L 2.453331,1.0517503 C 2.446961,1.0442593 2.443971,1.0317126 2.440672,1.0170682 2.437492,1.0020493 2.433852,0.9876296 2.422245,0.9778917 h -1.123e-4 c -0.00221,-0.00202 -0.00461,-0.00251 -0.00704,-0.00506 a 0.01337095,0.01337095 0 0 0 -0.00712,-0.0024 C 2.4241147,0.9225659 2.4178627,0.8749249 2.4014927,0.83207797 2.3815297,0.77927527 2.3466227,0.73328227 2.3200307,0.70163391 2.2902177,0.66399301 2.2610037,0.62833711 2.2616027,0.57549002 2.2625765,0.49488972 2.2704427,0.3457868 2.128867,0.34556208 Z"
       id="path2" />
    <path
       style="fill:none;stroke:#000000;stroke-width:0.00112361;stroke-miterlimit:4;stroke-dasharray:none;stroke-opacity:1"
       d="m 2.193927,0.61942288 c 0.013408,0.0530718 0.044795,0.13015143 0.064982,0.16753017 0.010712,0.0200002 0.032023,0.0621356 0.041274,0.11325985 0.00584,-1.873e-4 0.01236,6.742e-4 0.019214,0.0024 C 2.343592,0.84002488 2.298947,0.77275808 2.27861,0.75406871 2.27037,0.74657771 2.26992,0.74152171 2.274,0.74152171 c 0.022098,0.0200002 0.051124,0.0588771 0.061649,0.10325971 0.00487,0.0200377 0.00599,0.0413488 7.865e-4,0.0625476 0.00251,0.00105 0.00506,0.00225 0.00768,0.00251 0.038652,0.02 0.052922,0.035131 0.046068,0.057566 v -0.00161 c -0.00225,-1.123e-4 -0.00449,0 -0.00674,0 h -5.993e-4 c 0.00566,-0.017491 -0.00682,-0.030899 -0.039888,-0.045843 -0.03427,-0.014981 -0.061649,-0.012584 -0.066293,0.017416 -2.996e-4,0.00161 -4.869e-4,0.00247 -6.742e-4,0.00506 -0.00255,8.615e-4 -0.00521,0.00199 -0.00783,0.0024 C 2.252054,0.954861 2.243365,0.96988 2.238458,0.989281 2.233588,1.009244 2.232088,1.032577 2.230778,1.059282 v 1.124e-4 c -7.491e-4,0.01251 -0.00637,0.031386 -0.011948,0.050562 -0.05618,0.04015 -0.1340841,0.057604 -0.2003021,0.01251 a 0.0990649,0.0990649 0 0 0 -0.015056,-0.019963 0.05430779,0.05430779 0 0 0 -0.0103,-0.012472 c 0.00682,0 0.012659,-0.00112 0.017416,-0.00251 a 0.02303399,0.02303399 0 0 0 0.01176,-0.012509 c 0.00405,-0.01 0,-0.026105 -0.012922,-0.043559 -0.012922,-0.01749 -0.034869,-0.037265 -0.066967,-0.056966 -0.023596,-0.014981 -0.036929,-0.032585 -0.043072,-0.052285 -0.00618,-0.02 -0.00536,-0.040637 -5.618e-4,-0.0616113 0.00918,-0.0400754 0.032697,-0.0790272 0.047716,-0.10348443 0.00401,-0.002434 0.00139,0.005056 -0.015281,0.0364799 -0.014832,0.0281277 -0.042697,0.0935218 -0.00457,0.14434643 a 0.30423598,0.30423598 0 0 1 0.024233,-0.10771677 c 0.021124,-0.0478658 0.065282,-0.13123758 0.068765,-0.19730582 0.0018,0.001348 0.00813,0.005056 0.010824,0.007566 0.00816,0.004981 0.014232,0.0124721 0.022098,0.017416 0.00787,0.007528 0.017865,0.012547 0.032809,0.012547 0.00146,1.1236e-4 0.00281,2.2472e-4 0.00412,2.2472e-4 0.015431,0 0.027341,-0.005019 0.037341,-0.0100376 0.010861,-0.005019 0.019476,-0.0125095 0.027716,-0.0149815 h 1.872e-4 c 0.017491,-0.005056 0.031274,-0.0150564 0.039102,-0.0262175 z"
       id="path869" />
    <path
       style="fill:none;stroke:#000000;stroke-width:0.00112361;stroke-miterlimit:4;stroke-dasharray:none;stroke-opacity:1"
       d="m 2.0377453,0.47530124 h 0.00135 c 0.00532,0 0.010112,0.001798 0.014944,0.005056 0.00547,0.004832 0.00989,0.0107866 0.012884,0.0174159 0.00337,0.007453 0.00524,0.0149815 0.00573,0.0249816 v 1.4982e-4 c 2.622e-4,0.005019 2.247e-4,0.007491 -7.49e-5,0.009963 v 0.002996 c -0.00112,2.6218e-4 -0.0021,6.7417e-4 -0.00311,8.9889e-4 -0.00569,0.00206 -0.010262,0.005056 -0.014719,0.007491 4.495e-4,-0.003371 4.869e-4,-0.006742 1.124e-4,-0.0100001 v -5.6181e-4 c -4.494e-4,-0.004981 -0.0015,-0.007491 -0.00307,-0.0124721 a 0.02295909,0.02295909 0 0 0 -0.00622,-0.0100001 0.0092885,0.0092885 0 0 0 -0.00685,-0.002397 h -7.865e-4 c -0.00266,2.2472e-4 -0.00487,0.001498 -0.00697,0.004944 a 0.02067441,0.02067441 0 0 0 -0.00449,0.0101125 0.03535624,0.03535624 0 0 0 -8.614e-4,0.0123597 v 5.618e-4 c 4.494e-4,0.005056 0.00139,0.007491 0.003,0.0125095 0.00172,0.005019 0.00367,0.007491 0.00622,0.0100376 3.745e-4,3.3708e-4 7.491e-4,6.7417e-4 0.00127,8.9889e-4 -0.00262,0.002135 -0.00438,0.002622 -0.00659,0.005094 a 0.01138591,0.01138591 0 0 1 -0.00491,0.002547 0.09812856,0.09812856 0 0 1 -0.0103,-0.0150564 0.06636786,0.06636786 0 0 1 -0.00581,-0.0249816 0.06588097,0.06588097 0 0 1 0.003,-0.025019 0.05355872,0.05355872 0 0 1 0.010599,-0.0200377 c 0.00479,-0.004981 0.00974,-0.007491 0.015656,-0.007491 z"
       id="path865" />
    <path
       style="fill:none;stroke:#000000;stroke-width:0.00112361;stroke-miterlimit:4;stroke-dasharray:none;stroke-opacity:1"
       d="m 2.148683,0.47309148 h 4.869e-4 c 0.00798,0 0.014832,0.002322 0.021873,0.007416 0.00712,0.005056 0.01236,0.0124346 0.016405,0.0199628 0.00393,0.009701 0.00592,0.0171912 0.00622,0.0271165 0,-7.4908e-4 2.247e-4,-0.001498 2.247e-4,-0.002247 v 0.003933 A 0.00322101,0.00322101 0 0 1 2.1937428,0.52848625 L 2.193593,0.52758737 a 0.06767874,0.06767874 0 0 1 -0.00562,0.0264423 0.03569333,0.03569333 0 0 1 -0.00798,0.012547 0.02659209,0.02659209 0 0 0 -0.0033,-0.001573 c -0.0039,-0.001685 -0.00742,-0.002397 -0.010637,-0.004981 a 0.04913919,0.04913919 0 0 0 -0.00824,-0.002472 c 0.00187,-0.002247 0.00547,-0.004981 0.00685,-0.007416 0.00198,-0.004794 0.00307,-0.009888 0.0033,-0.0150564 v -7.4908e-4 a 0.04531891,0.04531891 0 0 0 -0.00228,-0.0149815 c -0.00169,-0.005019 -0.00378,-0.007491 -0.00685,-0.0124721 -0.00315,-0.002472 -0.00625,-0.004944 -0.01,-0.004944 h -5.993e-4 c -0.00348,0 -0.00659,0.001124 -0.00981,0.004944 a 0.02996292,0.02996292 0 0 0 -0.00768,0.0125095 0.0441953,0.0441953 0 0 0 -0.00337,0.0149815 v 7.1162e-4 c 7.49e-5,0.003333 2.996e-4,0.006704 7.49e-4,0.0100001 -0.00723,-0.002509 -0.016405,-0.005056 -0.022734,-0.007566 a 0.06123671,0.06123671 0 0 1 -6.742e-4,-0.007491 v -7.4907e-4 a 0.06636786,0.06636786 0 0 1 0.00562,-0.0287644 0.04044994,0.04044994 0 0 1 0.016105,-0.0199628 0.03689184,0.03689184 0 0 1 0.022248,-0.007491 z"
       id="path863" />
  </g>
  <g
     inkscape:groupmode="layer"
     id="layer4"
     inkscape:label="Layer 1"
     transform="translate(-2.0991753,0.01499999)">
    <path
       id="path873"
       style="fill:none;stroke:#e69629;stroke-width:0.00112361;stroke-miterlimit:4;stroke-dasharray:none;stroke-opacity:1"
       d="m 1.8707392,0.956768 c -0.010599,0 -0.017715,0.00506 -0.024831,0.012584 -0.00835,0.00888 -0.015432,0.021349 -0.02502,0.031386 v 7.47e-5 h -7.46e-5 c -0.0103,0.010038 -0.023259,0.012549 -0.03427,0.017605 -0.011011,0.00498 -0.01985,0.00745 -0.025843,0.019962 -0.00472,0.00861 -0.00367,0.020188 -0.00161,0.035207 0.00213,0.013708 0.00539,0.029362 0.00101,0.041872 l -7.47e-5,1.14e-4 v 1.493e-4 c -0.00884,0.023521 -0.00873,0.038577 -0.00461,0.046068 0.00423,0.00749 0.013258,0.01251 0.027079,0.014982 0.027678,0.00498 0.070751,0.00247 0.1070063,0.022547 0.032772,0.017453 0.065542,0.022435 0.0897,0.017379 0.024158,-0.00547 0.040001,-0.020601 0.042135,-0.048467 v -2.238e-4 c 0.00154,-0.016442 -0.011048,-0.036406 -0.027302,-0.058803 -0.016292,-0.021461 -0.035433,-0.041349 -0.044534,-0.061311 l -1.12e-4,-1.12e-4 -0.034084,-0.062323 c -0.011873,-0.015693 -0.024232,-0.026105 -0.038315,-0.028165 -0.00195,-3.37e-4 -0.00389,-5.245e-4 -0.00588,-5.245e-4 z" />
    <path
       id="path871"
       style="fill:none;stroke:#e69629;stroke-width:0.00112361;stroke-miterlimit:4;stroke-dasharray:none;stroke-opacity:1"
       d="m 2.2757631,0.9549334 v 7.46e-5 l -0.00169,8.23e-4 c -0.012472,0.007 -0.019514,0.019439 -0.024008,0.036855 -0.00446,0.01794 -0.00592,0.041199 -0.0073,0.067941 -0.00131,0.020712 -0.010749,0.046029 -0.017341,0.071049 -0.00659,0.024907 -0.00996,0.048316 -0.0021,0.063298 l 1.865e-4,1.119e-4 c 0.012622,0.026143 0.034083,0.035619 0.058952,0.033634 0.024944,-0.00191 0.05311,-0.017003 0.076256,-0.044606 0.02663,-0.032135 0.068428,-0.043784 0.092024,-0.058803 0.011718,-0.00745 0.018083,-0.01247 0.018649,-0.022275 3.25e-4,-0.00877 -0.00563,-0.022951 -0.02382,-0.042671 -0.00955,-0.010712 -0.012134,-0.024944 -0.015318,-0.039925 -0.00322,-0.012959 -0.00685,-0.025355 -0.014644,-0.032809 l -1.119e-4,-1.12e-4 c -0.010112,-0.00966 -0.019926,-0.0103 -0.031724,-0.010038 l -0.0079,3.731e-4 c -0.013371,0.01618 -0.045056,0.033671 -0.067079,0.028652 -0.020188,-0.00494 -0.031649,-0.0291 -0.033034,-0.051572 z M 2.469397,1.1030348 c -3e-7,8.2e-6 2.5e-6,1.82e-5 2.2e-6,2.63e-5 l 6.5e-6,-1.31e-5 -6.5e-6,-2.42e-5 c -2e-7,3.9e-6 -2e-6,7.1e-6 -2.2e-6,1.1e-5 z m 8.7e-6,1.32e-5 1.054e-4,4.257e-4 V 1.1028 Z" />
    <path
       id="path867"
       style="fill:none;stroke:#e69629;stroke-width:0.00112361;stroke-miterlimit:4;stroke-dasharray:none;stroke-opacity:1"
       d="m 2.0890793,0.5391979 c -0.00644,1.76e-6 -0.012236,0.001087 -0.017438,0.002434 -0.015094,0.004906 -0.025094,0.0149439 -0.031424,0.0225095 v 1.1192e-4 h -7.46e-5 c -0.00124,0.001086 -0.0027,0.002135 -0.00659,0.004907 -0.00386,0.002434 -0.0097,0.007527 -0.01809,0.0125835 -0.00742,0.004869 -0.00985,0.0124346 -0.00723,0.0224722 0.00262,0.007416 0.010712,0.01738 0.025694,0.0265935 h 1.865e-4 v 1.8654e-4 c 0.00933,0.004981 0.015619,0.0123597 0.022922,0.017416 a 0.13355971,0.13355971 0 0 0 0.012059,0.007415 0.04265971,0.04265971 0 0 0 0.01678,0.002511 c 0.01588,9.3634e-4 0.027567,-0.004944 0.037904,-0.0100006 0.010262,-0.004944 0.018988,-0.0123597 0.029025,-0.0174159 v -7.462e-5 c 0.020487,-0.007453 0.035207,-0.0199251 0.039814,-0.0315357 a 0.02138603,0.02138603 0 0 0 -5.991e-4,-0.0176047 v 0.004907 c -0.00273,-0.004981 -0.00835,-0.009851 -0.017903,-0.0149449 h -1.119e-4 c -0.019813,-0.007453 -0.028427,-0.0100371 -0.039401,-0.0175279 -0.018073,-0.0124973 -0.033079,-0.014938 -0.045506,-0.0149427 z" />
    <path
       style="fill:none;stroke:#000000;stroke-width:0.00112361;stroke-miterlimit:4;stroke-dasharray:none;stroke-opacity:1"
       d="m 2.0777083,0.55762436 c -7.49e-4,0.002172 -0.00423,0.001835 -0.00622,0.002472 -0.00176,9.3634e-4 -0.00322,0.002547 -0.00524,0.002547 -0.00187,0 -0.00487,-7.4907e-4 -0.00509,-0.002547 -3.745e-4,-0.002472 0.0033,-0.004981 0.00562,-0.004981 0.003,-0.001161 0.00689,-0.00176 0.0097,-1.8727e-4 7.116e-4,3.3708e-4 0.00135,0.001124 0.00112,0.001873 v 7.4907e-4 h 1.123e-4 z"
       id="path879" />
    <path
       style="fill:none;stroke:#000000;stroke-width:0.00112361;stroke-miterlimit:4;stroke-dasharray:none;stroke-opacity:1"
       d="m 2.0983453,0.55762436 v -8.2398e-4 c -2.247e-4,-7.4907e-4 4.869e-4,-0.001573 0.00109,-0.001873 0.00277,-0.001611 0.00674,-0.001011 0.00974,1.4981e-4 0.00236,0 0.00599,0.002509 0.00562,0.005056 -2.247e-4,0.001835 -0.00318,0.002472 -0.00506,0.002472 -0.00206,0 -0.00345,-0.001611 -0.00528,-0.002547 -0.00195,-6.7417e-4 -0.00547,-2.9963e-4 -0.0061,-0.002434 z"
       id="path877" />
    <path
       style="fill:none;stroke:#000000;stroke-width:0.00112361;stroke-miterlimit:4;stroke-dasharray:none;stroke-opacity:1"
       d="m 2.1388701,0.61691349 c -0.016292,0.007528 -0.035394,0.0200377 -0.055731,0.0200377 -0.0203,0 -0.03633,-0.0100001 -0.047941,-0.0174534 -0.00577,-0.005019 -0.010487,-0.0100376 -0.01397,-0.012547 -0.00614,-0.005019 -0.00539,-0.0124721 -0.00277,-0.0124721 0.00408,5.9926e-4 0.00483,0.005019 0.00745,0.007491 0.0036,0.002472 0.00805,0.007491 0.013483,0.0124721 0.010937,0.007491 0.025469,0.0174909 0.043709,0.0174909 0.018165,0 0.039439,-0.0100001 0.05236,-0.0174534 0.0073,-0.005056 0.016667,-0.0125095 0.02427,-0.0174909 0.00584,-0.005094 0.00558,-0.0100001 0.01045,-0.0100001 0.00479,5.9926e-4 0.00127,0.005019 -0.00551,0.0124346 a 0.30326219,0.30326219 0 0 1 -0.025843,0.0175283 z"
       id="path875" />
  </g>
</svg>
