<?xml version="1.0" encoding="UTF-8" standalone="no"?>
<!-- Created with Inkscape (http://www.inkscape.org/) -->

<svg
   width="19.999996mm"
   height="18.002733mm"
   viewBox="0 0 19.999996 18.002733"
   version="1.1"
   id="svg5"
   inkscape:version="1.1.2 (0a00cf5339, 2022-02-04)"
   sodipodi:docname="OpenHardwareLogo.svg"
   xmlns:inkscape="http://www.inkscape.org/namespaces/inkscape"
   xmlns:sodipodi="http://sodipodi.sourceforge.net/DTD/sodipodi-0.dtd"
   xmlns="http://www.w3.org/2000/svg"
   xmlns:svg="http://www.w3.org/2000/svg">
  <sodipodi:namedview
     id="namedview7"
     pagecolor="#ffffff"
     bordercolor="#666666"
     borderopacity="1.0"
     inkscape:pageshadow="2"
     inkscape:pageopacity="0.0"
     inkscape:pagecheckerboard="0"
     inkscape:document-units="mm"
     showgrid="false"
     inkscape:zoom="0.64052329"
     inkscape:cx="98.357079"
     inkscape:cy="206.86211"
     inkscape:window-width="1433"
     inkscape:window-height="938"
     inkscape:window-x="70"
     inkscape:window-y="27"
     inkscape:window-maximized="1"
     inkscape:current-layer="layer2"
     fit-margin-top="0"
     fit-margin-left="0"
     fit-margin-right="0"
     fit-margin-bottom="0" />
  <defs
     id="defs2" />
  <g
     inkscape:groupmode="layer"
     id="layer2"
     inkscape:label="Slice 1">
    <path
       style="fill:none;stroke:#f90000;stroke-width:0.0668755;stroke-opacity:1"
       d="M 3.0118776,17.036013 C 2.5162718,16.532317 2.1107763,16.090476 2.1107763,16.054144 c 0,-0.03633 0.3009401,-0.512487 0.6687557,-1.058121 0.3678156,-0.545634 0.6687557,-1.038841 0.6687557,-1.096017 0,-0.106624 -0.7230327,-1.974468 -0.7956264,-2.055378 C 2.6304869,11.819908 2.070651,11.701728 1.4085828,11.581997 0.74651454,11.462265 0.16720488,11.335856 0.12122793,11.301087 0.01362654,11.219716 3.0416527e-4,8.7439404 0.10711139,8.6779301 0.14532462,8.6543225 0.73916661,8.5311686 1.4267601,8.404279 2.1143533,8.2773894 2.6961906,8.1519911 2.7197317,8.1256158 2.7432736,8.0992379 2.9429879,7.6504508 3.1635423,7.1283082 3.4992723,6.3334977 3.5523661,6.1561652 3.4896998,6.0389461 3.4485319,5.9619408 3.1090247,5.4532096 2.7352394,4.9084325 L 2.0556301,3.9179317 3.0027417,2.973817 3.9498535,2.0297049 5.0183057,2.7631912 C 5.6908151,3.2248665 6.149291,3.4963388 6.2555039,3.4957574 6.3483139,3.4952519 6.815472,3.3348213 7.2936322,3.1392522 L 8.1630149,2.7836696 8.249259,2.3543878 C 8.2966931,2.1182814 8.4170691,1.5037886 8.5167612,0.98884456 l 0.1812581,-0.9362564 1.2706359,-0.0165051 c 0.6988498,-0.009074 1.3024358,0.0059651 1.3413028,0.03343736 0.03887,0.0274647 0.17078,0.60667502 0.293141,1.28713518 0.122361,0.6804576 0.237852,1.2777477 0.256649,1.3273085 0.01881,0.049558 0.172776,0.1503052 0.342177,0.2238805 0.836485,0.3633019 1.443514,0.5888278 1.584896,0.5888278 0.08914,0 0.624662,-0.317813 1.242751,-0.7375228 l 1.086114,-0.7375254 0.922302,0.9205374 c 0.507265,0.5062947 0.922302,0.9443371 0.922302,0.973427 0,0.02909 -0.301298,0.4910761 -0.669551,1.0266326 -0.368254,0.5355564 -0.700562,1.0316827 -0.738464,1.1025004 -0.05494,0.1026527 0.01469,0.3254362 0.343408,1.0987066 0.226774,0.5334687 0.437208,0.9853268 0.46763,1.004127 0.04374,0.027035 2.482471,0.4985375 2.578555,0.4985375 0.01357,0 0.02469,0.5998531 0.02469,1.333006 0,1.2112953 -0.01069,1.3362763 -0.117032,1.3688343 -0.06437,0.01972 -0.628074,0.127582 -1.252677,0.239721 -0.624605,0.112136 -1.169777,0.240987 -1.211492,0.286334 -0.04172,0.04534 -0.248711,0.528889 -0.459989,1.07454 l -0.384145,0.992094 0.724084,1.066207 0.724081,1.066204 -0.943174,0.943177 -0.943177,0.943177 -0.994047,-0.685963 c -0.546726,-0.377282 -1.030472,-0.699988 -1.074993,-0.717128 -0.04452,-0.01714 -0.292593,0.08315 -0.55127,0.222867 -0.296678,0.160244 -0.493212,0.230409 -0.532316,0.190049 -0.03409,-0.03519 -0.408566,-0.906618 -0.832158,-1.936501 -0.423593,-1.029886 -0.81591,-1.98127 -0.871812,-2.114187 l -0.101642,-0.241673 0.362138,-0.249414 C 12.51516,11.73305 12.984643,10.71374 12.809403,9.5996226 12.535639,7.8591102 10.847602,6.7940963 9.1793648,7.3093639 7.2721885,7.8984292 6.5784072,10.238426 7.8415703,11.821498 c 0.1019305,0.127746 0.3739483,0.370758 0.6044851,0.54003 0.2305366,0.169272 0.4191579,0.329344 0.4191579,0.355712 0,0.06498 -1.7329868,4.237939 -1.7791364,4.284087 -0.020117,0.02012 -0.2605446,-0.08179 -0.5342816,-0.226468 l -0.4977026,-0.263046 -0.9852415,0.66991 c -0.5418827,0.368451 -1.0236326,0.692451 -1.0705548,0.720002 -0.056601,0.03323 -0.3885772,-0.258124 -0.9864148,-0.865719 z"
       id="path882" />
  </g>
</svg>
