<?xml version="1.0" encoding="UTF-8" standalone="no"?>
<!-- Created with Inkscape (http://www.inkscape.org/) -->

<svg
   width="20.000002mm"
   height="19.360394mm"
   viewBox="0 0 20.000002 19.360394"
   version="1.1"
   id="svg5"
   inkscape:version="1.1.2 (0a00cf5339, 2022-02-04)"
   sodipodi:docname="OpenSource.svg"
   xmlns:inkscape="http://www.inkscape.org/namespaces/inkscape"
   xmlns:sodipodi="http://sodipodi.sourceforge.net/DTD/sodipodi-0.dtd"
   xmlns="http://www.w3.org/2000/svg"
   xmlns:svg="http://www.w3.org/2000/svg">
  <sodipodi:namedview
     id="namedview7"
     pagecolor="#ffffff"
     bordercolor="#666666"
     borderopacity="1.0"
     inkscape:pageshadow="2"
     inkscape:pageopacity="0.0"
     inkscape:pagecheckerboard="0"
     inkscape:document-units="mm"
     showgrid="false"
     fit-margin-top="0"
     fit-margin-left="0"
     fit-margin-right="0"
     fit-margin-bottom="0"
     inkscape:zoom="5.1241863"
     inkscape:cx="39.811199"
     inkscape:cy="73.084774"
     inkscape:window-width="1433"
     inkscape:window-height="938"
     inkscape:window-x="70"
     inkscape:window-y="27"
     inkscape:window-maximized="1"
     inkscape:current-layer="layer1" />
  <defs
     id="defs2" />
  <g
     inkscape:label="Slice 1"
     inkscape:groupmode="layer"
     id="layer1"
     transform="translate(354.2033,206.78487)">
    <path
       style="fill:none;stroke:#000000;stroke-width:0.00835075;stroke-opacity:1"
       d="m -347.74019,-187.43947 c -0.13255,-0.034 -0.63151,-0.25177 -0.97704,-0.4265 -0.83584,-0.42269 -1.56401,-0.92502 -2.24635,-1.54964 -0.14926,-0.13663 -0.49033,-0.47851 -0.62404,-0.62552 -0.92506,-1.01706 -1.64364,-2.24146 -2.08624,-3.55477 -0.4435,-1.316 -0.60641,-2.66956 -0.48776,-4.05277 0.10809,-1.25998 0.48483,-2.55958 1.07606,-3.7119 0.48691,-0.94899 1.13747,-1.83438 1.87907,-2.55733 0.76649,-0.74722 1.5936,-1.33376 2.55189,-1.80967 1.78794,-0.88791 3.74555,-1.22214 5.69939,-0.97308 1.9017,0.24243 3.70715,1.03022 5.17746,2.25914 1.57027,1.31248 2.71159,3.11973 3.24361,5.13618 0.60839,2.3059 0.36185,4.75273 -0.69679,6.91551 -0.41228,0.84228 -0.89889,1.56351 -1.54803,2.29441 -0.1332,0.14998 -0.58647,0.60281 -0.74827,0.74755 -0.67084,0.60009 -1.38584,1.0879 -2.18372,1.48982 -0.3878,0.19535 -0.86882,0.40287 -0.9823,0.42378 -0.0668,0.0123 -0.14306,-1.3e-4 -0.21079,-0.0343 -0.045,-0.0227 -0.1214,-0.0937 -0.14173,-0.13172 -0.005,-0.01 -0.52332,-1.35511 -1.15115,-2.98935 l -1.14151,-2.97133 -4.6e-4,-0.092 c -4.4e-4,-0.0872 9.5e-4,-0.0949 0.0264,-0.14654 0.0478,-0.0971 0.10495,-0.14283 0.25034,-0.20038 0.0359,-0.0142 0.11782,-0.0515 0.18212,-0.0829 0.88214,-0.43044 1.49006,-1.25765 1.64866,-2.24334 0.0383,-0.23813 0.0439,-0.58899 0.0131,-0.82149 -0.13233,-0.99937 -0.72099,-1.84441 -1.60334,-2.30167 -0.31743,-0.1645 -0.6342,-0.26384 -1.01044,-0.31688 -0.14455,-0.0204 -0.50602,-0.025 -0.66176,-0.008 -0.38879,0.0413 -0.7154,0.13571 -1.05432,0.30488 -0.29913,0.14931 -0.54624,0.32809 -0.78499,0.56795 -0.47229,0.47445 -0.77105,1.09303 -0.85733,1.77507 -0.0178,0.14078 -0.0204,0.52839 -0.004,0.65971 0.0725,0.59542 0.28783,1.11597 0.64953,1.56994 0.0936,0.11746 0.33985,0.3635 0.45859,0.45817 0.20638,0.16454 0.44456,0.30932 0.66806,0.4061 0.2371,0.10266 0.27196,0.12777 0.3239,0.23327 0.0254,0.0516 0.0268,0.0594 0.0264,0.14654 l -4.3e-4,0.092 -1.1411,2.9704 c -0.6276,1.63373 -1.14759,2.98091 -1.15553,2.99374 -0.028,0.0454 -0.0914,0.10436 -0.13675,0.12738 -0.0802,0.0407 -0.15799,0.0505 -0.238,0.03 z"
       id="path836" />
  </g>
</svg>
