<?xml version="1.0" encoding="UTF-8" standalone="no"?>
<svg
   id="Layer_1"
   data-name="Layer 1"
   viewBox="0 0 362.48 504.09"
   version="1.1"
   sodipodi:docname="simplified logo-color-flat.svg"
   inkscape:version="1.2.2 (b0a8486541, 2022-12-01)"
   xmlns:inkscape="http://www.inkscape.org/namespaces/inkscape"
   xmlns:sodipodi="http://sodipodi.sourceforge.net/DTD/sodipodi-0.dtd"
   xmlns="http://www.w3.org/2000/svg"
   xmlns:svg="http://www.w3.org/2000/svg">
  <sodipodi:namedview
     id="namedview77"
     pagecolor="#ffffff"
     bordercolor="#000000"
     borderopacity="0.25"
     inkscape:pageshadow="2"
     inkscape:pageopacity="0.0"
     inkscape:pagecheckerboard="0"
     showgrid="false"
     inkscape:zoom="1.6416524"
     inkscape:cx="-55.127384"
     inkscape:cy="498.58302"
     inkscape:window-width="1737"
     inkscape:window-height="1133"
     inkscape:window-x="0"
     inkscape:window-y="0"
     inkscape:window-maximized="1"
     inkscape:current-layer="layer1"
     inkscape:showpageshadow="2"
     inkscape:deskcolor="#d1d1d1" />
  <defs
     id="defs4">
    <style
       id="style2">.cls-1{fill:#ff7b00;}.cls-2{fill:#86a0a6;}.cls-10,.cls-11,.cls-12,.cls-13,.cls-14,.cls-15,.cls-16,.cls-2,.cls-4,.cls-5,.cls-6,.cls-7,.cls-8,.cls-9{fill-rule:evenodd;}.cls-3{fill:#ffb700;}.cls-4{fill:#fff;}.cls-5{fill:#c78500;}.cls-6{fill:#cfc759;}.cls-7{fill:#82c759;}.cls-8{fill:#387859;}.cls-9{fill:#546959;}.cls-10{fill:#ad9459;}.cls-11{fill:#8f4059;}.cls-12{fill:#54cc59;}.cls-13{fill:#e07845;}.cls-14{fill:#54a359;}.cls-15{fill:#802433;}.cls-16{fill:#544085;}</style>
  </defs>
  <g
     inkscape:groupmode="layer"
     id="layer1"
     inkscape:label="Layer 3"
     style="display:inline">
    <path
       id="path12"
       style="stroke:#86a0a6;stroke-opacity:1"
       class="cls-2"
       d="m 93.474609,444.84961 c -1.273945,-0.10012 -2.550781,0.037 -3.800781,0.45703 -3.79,4 1.409766,6.17961 0.759766,11.34961 -15.66,7.89 -40.539063,11.01984 -63.539063,10.58984 -18.7699997,-0.35 -40.441406,-1.81961 -51.441406,-11.34961 -0.37,-4.4 3.641484,-4.42007 2.271484,-9.83007 -11.15,-5.39 -23.601406,10.52968 -21.941406,21.17968 0.44,2.82 4.800781,5.75008 6.050781,9.08008 a 43.24,43.24 0 0 1 1.519532,7.56055 c 1.14,17.04 -1,37.15969 0,50.67969 10.83,8.11 26.8593746,17.69945 43.1093746,21.93945 36.6500004,9.55 77.2003124,-5.44922 96.0703094,-23.44922 2.59,-3.89 -0.46976,-9.89062 -0.75976,-15.89062 -0.21,-4.59 1.21953,-11.48039 1.51953,-18.1504 0.24,-5.94 -1.07977,-11.7089 -0.75977,-15.8789 0.65,-8.54 6.94055,-11.73039 7.56055,-16.65039 1.1025,-8.5925 -7.70152,-20.9359 -16.619141,-21.63672 z" />
    <path
       style="stroke:#ffb700;stroke-opacity:1;fill:#ffb700;fill-opacity:1"
       d="m 29.94445,224.39754 c -1,4.54 4.3,2.74859 3,7.55859 -3,8 -11.05984,11.00016 -10.58984,18.91016 0.33,5.63 6.73859,8.51109 6.80859,14.37109 0.08,7.06 -12.12992,19.47 -18.91992,25 -11.39,9.24 -30.06031,18.93977 -37.82031,29.50977 -8,10.93 -8.45852,27.48906 2.27148,34.78906 -6.09,6.83 -16.25015,9.82016 -19.66016,18.91016 -7.159995,19.05 3.61985,35.90968 11.33985,50.67968 6.78,13 15.56875,29.10102 25.71875,33.29102 7.49,3.08 22.22,3.5693 31,3.7793 20.31,0.47 46.89172,-0.31961 59.76172,-11.34961 5.94,-6.44 8.99906,-18.95 4.53906,-29.5 6.6,-10.93 16.47039,-16.53977 17.40039,-30.25977 0.94,-14 -6.12133,-35.94062 -12.86133,-46.14062 -4.18,-6.33 -14.5489,-12.01993 -15.8789,-19.66993 -1.45,-8.41 6.30054,-15.51 6.06054,-25 -0.28,-10.76 -11,-16.4607 -3,-25.7207 -18,-0.31 -7.13039,24.66172 -18.15039,30.26172 -1.68,-7.61 -10.67961,-14.89094 -11.34961,-24.21094 -0.67,-9.32 2.73,-15.07969 0,-21.92969 -2.17,-5.46 -9.05984,-7.16937 -10.58984,-12.85937 -1.25,-4.64 2.22977,-9.55109 0.75976,-13.62109 -2.52999,-3 -4.72984,-6.35883 -9.83984,-6.79883 z"
       id="path14" />
    <path
       class="cls-4"
       d="M -15.46633,375.7166"
       id="path16" />
    <path
       class="cls-4"
       d="M -4.12633,393.1166"
       id="path18" />
    <path
       id="path20"
       style="stroke:#c78500;stroke-opacity:1"
       class="cls-5"
       d="m 112.22765,385.5323 c 0,-0.005 -0.0439,-0.008 -0.10004,-0.0103 -0.0561,-0.002 -0.12437,-0.002 -0.17302,-0.001 -0.0487,0.001 -0.0989,0.004 -0.1507,0.008 -0.0518,0.004 -0.10522,0.01 -0.16022,0.0175 0.2175,4.1975 -0.1494,7.8088 -0.91647,11.01982 -0.76706,3.21102 -1.9343,6.02175 -3.31747,8.6181 -1.38318,2.59636 -2.98229,4.97834 -4.61311,7.33186 -1.63082,2.35352 -3.29334,4.67857 -4.80334,7.16107 11.53,6.1025 22.84883,14.27875 33.07583,24.20422 10.227,9.92547 19.36217,21.60015 26.52483,34.69953 7.16267,13.09938 12.35284,27.62344 14.68984,43.24766 2.337,15.62422 1.82083,32.34859 -2.42917,49.84859 2.9575,-1.465 5.58301,-1.85059 7.85472,-1.43162 2.2717,0.41897 4.1896,1.64248 5.73188,3.39569 1.54227,1.7532 2.70892,4.03609 3.47813,6.57381 0.76921,2.53771 1.14097,5.33025 1.09347,8.10275 2.365,0.2175 4.31629,0.84932 5.98072,1.76846 1.66444,0.91914 3.04202,2.12559 4.25959,3.49236 1.21758,1.36677 2.27516,2.89385 3.2996,4.45424 1.02443,1.56038 2.01572,3.15408 3.10072,4.65408 1.3525,-4.495 2.65814,-9.05061 3.8402,-13.71231 1.18206,-4.66169 2.24054,-9.42948 3.09871,-14.34882 0.85816,-4.91935 1.51601,-9.99026 1.89682,-15.25821 0.38081,-5.26794 0.48458,-10.73293 0.23458,-16.44043 -0.8675,-19.1375 -4.18127,-36.78819 -9.51536,-52.92611 -5.33409,-16.13791 -12.68851,-30.76305 -21.63729,-43.84943 -8.94879,-13.08639 -19.49196,-24.63403 -31.20355,-34.61694 -11.71159,-9.98292 -24.59161,-18.40111 -38.21411,-25.22861 -0.0319,-0.11062 -0.0739,-0.21061 -0.12692,-0.29929 -0.053,-0.0887 -0.1171,-0.16603 -0.19306,-0.23139 -0.076,-0.0654 -0.22742,-0.11873 -0.35988,-0.15941 -0.13246,-0.0407 -0.24593,-0.0687 -0.24593,-0.0833 v 0 -1e-5 0 z m -167.033199,3.80469 c -12.735,7.5575 -24.980049,16.48438 -36.180435,26.81829 -11.200386,10.33392 -21.356106,22.07487 -29.912456,35.2605 -8.55635,13.18564 -15.51332,27.81596 -20.31621,43.92862 -4.80288,16.11266 -7.45168,33.70767 -7.39168,52.82267 0.05,15.4525 1.91376,30.03434 5.27361,43.69945 3.35985,13.6651 8.21579,26.41347 14.25018,38.19903 6.03438,11.78555 13.24721,22.6083 21.32081,32.42215 8.073599,9.81385 17.007978,18.61882 26.485478,26.36882 9.555,7.8225 20.390572,14.87694 32.283929,20.79282 11.893357,5.91587 24.8445,10.69319 38.630643,13.96144 13.7861424,3.26825 28.407285,5.02744 43.640642,4.90707 15.233357,-0.12037 31.078928,-2.12031 47.313928,-6.37031 3.735,-9.3675 5.98874,-19.94629 6.864662,-30.84449 0.875923,-10.89819 0.374028,-22.11578 -1.402242,-32.76086 -1.77627,-10.64509 -4.826915,-20.71768 -9.048493,-29.32587 -4.221577,-8.6082 -9.614087,-15.75199 -16.074087,-20.53949 -12.7725,1.0525 -25.513071,0.94812 -37.895647,-0.25735 -12.382575,-1.20548 -24.4071554,-3.51205 -35.747673,-6.86394 -11.340517,-3.35188 -21.996972,-7.74908 -31.643297,-13.1358 -9.646326,-5.38673 -18.282522,-11.76298 -25.582521,-19.07298 -1.223111,-1.25113 -2.418163,-2.5285 -3.584356,-3.83115 -1.166194,-1.30264 -2.303528,-2.63056 -3.411202,-3.98277 -1.107675,-1.35222 -2.185691,-2.72873 -3.233248,-4.12856 -1.047556,-1.39982 -2.064653,-2.82297 -3.050491,-4.26846 -0.67,-0.9575 -1.250679,-1.90188 -1.771384,-2.83531 -0.520706,-0.93344 -0.981438,-1.85594 -1.411545,-2.76969 -0.430108,-0.91375 -0.82959,-1.81875 -1.227796,-2.71719 -0.398205,-0.89844 -0.795134,-1.79031 -1.220134,-2.67781 -1.365,-2.855 -2.547534,-6.01812 -3.534929,-9.34935 -0.987395,-3.33124 -1.779651,-6.83059 -2.364094,-10.35807 -0.584444,-3.52748 -0.961075,-7.08309 -1.11722,-10.52682 -0.156145,-3.44374 -0.0918,-6.7756 0.205696,-9.8556 0.9275,-9.54 3.149434,-18.12625 6.360303,-25.90281 3.210869,-7.77655 7.410674,-14.74342 12.293916,-21.04466 4.883242,-6.30124 10.449922,-11.93685 16.394542,-17.05091 5.94462,-5.11406 12.267179,-9.70655 18.66218,-13.92155 -1.932501,-2.0375 -3.439338,-4.50057 -4.678342,-7.23157 -1.239005,-2.73101 -2.210177,-5.72995 -3.071349,-8.83921 -0.861172,-3.10926 -1.612344,-6.32883 -2.411348,-9.50108 -0.799004,-3.17226 -1.64584,-6.2972 -2.69834,-9.2172 z"
       sodipodi:nodetypes="sssscssscssscssscssscssscssscsssscccscssscssscssscssscssscssscssscssscssscsssc" />
    <path
       id="path24"
       style="stroke:#86a0a6;stroke-opacity:1"
       class="cls-2"
       d="m 0.4140625,562.55664 c -0.63,12.99 1.8590625,22.85078 1.5390625,35.55078 14.74,8.08 45.11,8.44953 62,2.26953 -0.25,-13.71 1.521484,-27.37031 2.271484,-37.82031 -16.46,9.85 -49.480547,9.75 -65.8105465,0 z" />
    <path
       id="path26"
       style="stroke:#cfc759;stroke-opacity:1"
       class="cls-6"
       d="m 157.81836,502.01758 c -14.30369,-0.20176 -10.15359,24.84117 -3.84375,32.54883 5.59,-3.49 7.29961,-10.83891 12.09961,-15.12891 -1.94,-6.38 -1.86055,-14.78062 -7.56055,-17.39062 -0.2364,-0.0161 -0.46827,-0.0261 -0.69531,-0.0293 z" />
    <path
       id="path28"
       style="stroke:#82c759;stroke-opacity:1"
       class="cls-7"
       d="m 134.34375,522.33984 a 9,9 0 0 0 -1.5,0.12696 c -9.33,3.32 3.00906,10.59937 4.53906,12.85937 2.36,3.57 2.57,10.79086 6,15.88086 4.21,6.26 9.94086,8.76938 15.13086,12.10938 -6.01,-11.81 -8.18992,-38.79961 -22.66992,-40.84961 a 9,9 0 0 0 -1.5,-0.12696 z" />
    <path
       id="path30"
       style="stroke:#82c759;stroke-opacity:1"
       class="cls-7"
       d="m 166.07422,526.24609 c -5.36,7.47 -13.43047,28.24 -0.73047,34 2.49,-9.33 5.32,-22.3 3,-34 z" />
    <path
       id="path32"
       style="stroke:#387859;stroke-opacity:1"
       class="cls-8"
       d="m 141.20898,559.85742 c -1.23843,0.0206 -2.51445,0.36821 -3.8457,1.18946 -1.17,1.09999 -0.66976,3.86882 -0.75976,6.04882 -21.62,5.69 -16.66,39.6511 3,43.8711 5.21,-5.11 13.92968,-4.75953 21.92968,-2.26953 2.83,-2.22 4.46078,-5.62032 6.05078,-9.07032 -7.86,-5.51 -13.66125,-16.53093 -3.78125,-24.21093 -3.26,-5.31 -9.56867,-7.58008 -16.63867,-9.08008 v -4.53906 c -1.93125,-1.1 -3.89101,-1.97374 -5.95508,-1.93946 z" />
    <path
       id="path34"
       style="stroke:#546959;stroke-opacity:1"
       class="cls-9"
       d="m 175.73242,575.93359 c -5.44408,-0.17427 -10.10937,5.81641 -11.92969,10.83203 5.8,4.78 7.6104,13.5711 17.40039,14.3711 0.24001,-7.95 1.83024,-16.80922 -0.75976,-23.44922 -1.60125,-1.1725 -3.18659,-1.70511 -4.71094,-1.75391 z" />
    <path
       id="path36"
       style="stroke:#546959;stroke-opacity:1"
       class="cls-9"
       d="m 100.37891,581.81445 c -6.12516,0.1036 -12.040082,5.90649 -10.705082,14.02149 7.31,6.59 17.880622,-1.09961 16.640622,-12.09961 -1.8275,-1.3575 -3.89382,-1.95641 -5.93554,-1.92188 z" />
    <path
       id="path38"
       style="stroke:#ad9459;stroke-opacity:1"
       class="cls-10"
       d="m 116.07227,590.1875 c -6.8445,0.002 -7.28961,10.57031 -12.0293,13.96875 1.69,5.38 8.15984,5.96984 10.58984,10.58984 3.98,-1.06 4.8418,-5.28906 9.8418,-5.28906 -0.3,-8.03 -4.24055,-12.41015 -6.06055,-18.91015 -0.85687,-0.24563 -1.63374,-0.35955 -2.34179,-0.35938 z" />
    <path
       id="path40"
       style="stroke:#8f4059;stroke-opacity:1"
       class="cls-11"
       d="m 188.76367,595.08594 c -0.95,5.42 -2.11984,12.92133 -10.58984,12.86133 -3.49,-0.04 -2.75055,-4.31102 -6.81055,-3.79102 -7.63,16.63 12.7207,23.77023 25.7207,27.24023 3.82,-10.78 4.53969,-34.99054 -8.32031,-36.31054 z" />
    <path
       id="path42"
       style="stroke:#54cc59;stroke-opacity:1"
       class="cls-12"
       d="m 80.082031,600.78711 c -3.70135,-0.0445 -7.380625,0.99664 -10.078125,3.36914 a 21.48,21.48 0 0 0 7.570313,9.08008 c 3.81,-3.5 13.088906,-1.52883 15.878906,-6.04883 -2.505625,-3.94844 -7.961428,-6.33528 -13.371094,-6.40039 z" />
    <path
       id="path44"
       style="stroke:#e07845;stroke-opacity:1"
       class="cls-13"
       d="m 96.134766,610.77539 c -6.710465,0.0692 -12.91211,4.1543 -13.271485,9.27149 -0.16,2.25 3.311016,6.47007 4.541016,9.83007 3.57,9.63 2.420312,18.65969 7.570312,21.17969 6.840001,-1.46 9.919371,-0.48953 13.609371,-3.01953 13.65,-9.39 3.18946,-32.63055 -6.81054,-36.31055 -1.841878,-0.67594 -3.759744,-0.97054 -5.638674,-0.95117 z" />
    <path
       id="path46"
       style="stroke:#54a359;stroke-opacity:1"
       class="cls-14"
       d="m 150.38477,612.58008 c -4.10368,-0.0206 -8.84961,3.12898 -8.52149,7.4668 3.24,0.03 10.56109,-1.92102 13.6211,-4.54102 -0.97626,-2.035 -2.95007,-2.91497 -5.09961,-2.92578 z" />
    <path
       id="path48"
       style="stroke:#802433;stroke-opacity:1"
       class="cls-15"
       d="m 130.16211,614.63477 c -5.51256,-0.0917 -9.11477,4.37875 -12.47852,6.92187 a 31.67,31.67 0 0 1 3,17.40039 c 7.9,-1.09 10.88086,2.73883 14.38086,6.04883 6.8,-2.39 13.44883,-11.75016 6.79883,-18.91016 -2.14,-1.27 -6.02883,-1.69953 -6.79883,-2.26953 0.24,-4.12 1.09828,-5.50031 -0.76172,-8.32031 -1.49625,-0.58688 -2.86849,-0.84993 -4.14062,-0.87109 z" />
    <path
       id="path50"
       style="stroke:#c78500;stroke-opacity:1"
       class="cls-5"
       d="m 160.77344,614.74609 c -0.5,6.09 -3.66985,10.60133 -10.58985,12.11133 2.42,10.93 -2.22007,19.44969 -10.58007,21.92969 0.6,5.2 6.29101,5.32937 5.29101,12.10937 8.73,1.15 12.27961,7.3904 11.34961,18.1504 13.72,-11.74 25.2793,-25.6011 33.2793,-43.1211 -11.82,-4.07 -22.13047,-9.63969 -26.48047,-21.17969 z" />
    <path
       id="path52"
       style="stroke:#544085;stroke-opacity:1"
       class="cls-16"
       d="m 123.12109,644.75195 c -4.95937,-0.0804 -7.49211,5.19196 -3.94726,9.33399 3.89,4.54 12.99008,1.02969 9.08008,-7.57032 -1.86797,-1.21406 -3.61464,-1.73905 -5.13282,-1.76367 z" />
    <path
       id="path54"
       style="stroke:#544085;stroke-opacity:1"
       class="cls-16"
       d="m 109.05469,653.35156 c -0.13502,-0.002 -0.27078,-10e-4 -0.40625,0.002 -2.1675,0.055 -4.35547,0.85718 -5.35547,2.24218 -2.35,10.42 12.99984,10.7 10.58984,0 -0.8625,-1.50468 -2.80293,-2.20753 -4.82812,-2.24414 z" />
    <path
       id="path56"
       style="stroke:#544085;stroke-opacity:1"
       class="cls-16"
       d="m 134.27539,656.47461 c -1.29691,-0.006 -2.80547,0.40664 -4.51172,1.39258 -2.04,5.83 0.0291,10.43984 4.53906,10.58984 7.78782,0.26156 6.97598,-11.95032 -0.0273,-11.98242 z" />
    <path
       id="path58"
       style="stroke:#544085;stroke-opacity:1"
       class="cls-16"
       d="m 119.59375,660.98438 c -7.33228,-0.14606 -8.00742,14.76523 1.11914,12.77148 3.63,-0.81 5.53,-7.06961 3,-11.34961 -1.54266,-0.97031 -2.91931,-1.39798 -4.11914,-1.42187 z" />
    <path
       id="path60"
       style="stroke:#544085;stroke-opacity:1"
       class="cls-16"
       d="m 97.234375,663.16602 c -1.4,1.62 -0.51,5.54148 -0.75,8.27148 2.67,0.94 9.370075,1.98852 9.080075,-2.27148 -4.06,-0.69 -3.90008,-5.64 -8.330075,-6 z" />
    <path
       id="path62"
       style="stroke:#544085;stroke-opacity:1"
       class="cls-16"
       d="m 146.04492,667.75195 c -3.04668,0.0255 -6.36992,3.38477 -4.93164,7.51367 1.13,3.25 6.13031,4.15 9.07031,0.75 0.72047,-6.0175 -1.61428,-8.28479 -4.13867,-8.26367 z" />
    <path
       id="path64"
       style="stroke:#544085;stroke-opacity:1"
       class="cls-16"
       d="m 131.9668,673.72656 c -3.98546,0.10421 -7.45078,3.56274 -5.22266,8.34961 4.17,5.33 14.34008,0.84945 9.83008,-6.81055 -1.40906,-1.10812 -3.04789,-1.57983 -4.60742,-1.53906 z" />
    <path
       id="path66"
       style="stroke:#544085;stroke-opacity:1"
       class="cls-16"
       d="m 105.56445,676.77734 c -1.85,1.43 -4.94007,1.62977 -8.330075,1.50977 -4.16,13.3 14.600075,6.50023 8.330075,-1.50977 z" />
    <path
       id="path70"
       style="stroke:#544085;stroke-opacity:1"
       class="cls-16"
       d="m 144.0918,683.48242 c -3.51461,-0.0311 -6.90594,2.3318 -6.78907,6.1543 2.21,7.79 15.9918,5.82898 11.3418,-4.54102 -1.33125,-1.09062 -2.95519,-1.59913 -4.55273,-1.61328 z" />
    <path
       id="path68"
       style="stroke:#544085;stroke-opacity:1"
       class="cls-16"
       d="m 118.67188,679.69922 a 10.82,10.82 0 0 0 -7.0586,2.37695 c -1.68,13.34 16.56031,5.14047 8.32031,-2.26953 a 10.82,10.82 0 0 0 -1.26171,-0.10742 z" />
    <path
       id="path72"
       style="stroke:#c78500;stroke-opacity:1"
       class="cls-5"
       d="m 106.2832,690.39648 c -2.06,2.35 -7.429841,1.46 -10.589841,0.75 1.25,10.59 -1.789531,20.90024 -2.269531,27.24024 9.050002,-3.81 18.130472,-7.59938 26.480472,-12.10938 -0.78,-3.73 -3.82,-5.21984 -3,-10.58984 -5.01,-0.28 -7.8111,-2.76102 -10.6211,-5.29102 z" />
    <path
       id="path74"
       style="stroke:#544085;stroke-opacity:1"
       class="cls-16"
       d="m 129.60742,691.64453 c -1.09654,0.008 -2.30961,0.31836 -3.62304,1.02149 -7.41001,3.97 0.65859,14.1196 6.80859,12.0996 5.85234,-1.93359 3.51554,-13.17171 -3.18555,-13.12109 z" />
  </g>
  <g
     inkscape:groupmode="layer"
     id="layer2"
     inkscape:label="Layer 2"
     style="display:inline">
    <g
       id="g1695"
       transform="translate(-148.60602,224.47573)"
       style="display:inline">
      <path
         class="cls-1"
         d="m 459.53,231.05 c -6.1,6.9 -5.47,15.47 -1.51,24.2 10.38,-1.78 8.62,-19.98 1.51,-24.2 z"
         transform="translate(-250.75,-108.51)"
         id="path6"
         style="stroke:#ff7b00;stroke-opacity:1" />
      <path
         class="cls-1"
         d="m 419.44,259.79 c -8.86,7.48 -4.17,22.35 -6.81,31.77 -2.68,1.47 -4.37,0 -7.56,0 0,20.74 7.3,40.34 30.25,33.28 4,-6.78 14.52,-8.27 17.4,-15.88 2.7,-7.12 0.88,-19.16 -3.78,-26.48 -6.75,-10.58 -24.38,-11.57 -29.5,-22.69 z"
         transform="translate(-250.75,-108.51)"
         id="path8"
         style="display:inline;stroke:#ff7b00;stroke-opacity:1" />
      <path
         class="cls-1"
         d="m 383.89,259.79 c -3.39,9.92 3.48,21.38 11.34,17.4 -7.96,-3.19 -3.36,-14.3 -11.34,-17.4 z"
         transform="translate(-250.75,-108.51)"
         id="path10"
         style="display:inline;stroke:#ff7b00;stroke-opacity:1" />
    </g>
  </g>
</svg>
